<svg width="75" height="75" viewBox="0 0 75 75" fill="none" xmlns="http://www.w3.org/2000/svg">
<circle opacity="0.24" cx="37.5" cy="37.5" r="37.5" fill="white"/>
<path fill-rule="evenodd" clip-rule="evenodd" d="M38.6768 22.5C44.5067 22.5 49.2743 22.5997 53.6847 22.7992H53.7472H53.8097C55.8721 22.7992 57.5595 24.7935 57.5595 27.2502V27.35L57.5684 27.4497C57.7737 30.5319 57.872 33.7319 57.872 36.9592C57.8809 40.1865 57.7737 43.3865 57.5684 46.4687L57.5595 46.5685V46.6682C57.5595 47.9192 57.1399 49.0796 56.3631 49.9408C55.6667 50.7204 54.7561 51.1555 53.8097 51.1555H53.7383H53.6669C48.944 51.3822 43.9532 51.5 38.8107 51.5C38.4982 51.5 38.1768 51.5 37.8643 51.5H37.8732H37.8643C37.5429 51.5 37.2215 51.5 36.9001 51.5C31.7397 51.5 26.749 51.3822 22.0618 51.1646H21.9903H21.9189C20.9725 51.1646 20.0708 50.7294 19.3744 49.9498C18.6066 49.0886 18.1781 47.9283 18.1781 46.6772V46.5775L18.1692 46.4778C17.9549 43.3865 17.8567 40.1865 17.8745 36.9864V36.9773V36.9683C17.8656 33.7682 17.9638 30.5772 18.1692 27.4859L18.1781 27.3862V27.2865C18.1781 24.8207 19.8565 22.8173 21.9189 22.8173H21.9814H22.0439C26.4633 22.6088 31.2308 22.5181 37.0608 22.5181H37.8643H38.6768V22.5ZM38.6811 19.5C38.4115 19.5 38.142 19.5 37.8725 19.5C37.603 19.5 37.3334 19.5 37.0639 19.5C31.889 19.5 26.804 19.5729 21.8268 19.8007C18.1613 19.8007 15.1875 23.1084 15.1875 27.2089C14.9629 30.4711 14.8641 33.715 14.8731 36.9681C14.8641 40.2212 14.9539 43.4651 15.1785 46.7182C15.1785 50.8187 18.1523 54.1537 21.8178 54.1537C26.7411 54.3907 31.7633 54.5 36.8932 54.5C37.2166 54.5 37.5491 54.5 37.8725 54.5C38.1959 54.5 38.5194 54.5 38.8338 54.5C43.9637 54.5 48.9859 54.3907 53.9182 54.1537C57.5927 54.1537 60.5664 50.8187 60.5664 46.7182C60.7821 43.4651 60.8809 40.2121 60.8719 36.959C60.8809 33.7059 60.7821 30.462 60.5664 27.1998C60.5664 23.0993 57.5927 19.8098 53.9182 19.8098C48.941 19.5729 43.8649 19.5 38.6811 19.5Z" fill="white"/>
<path fill-rule="evenodd" clip-rule="evenodd" d="M34 46V29L47 37.5L34 46Z" fill="white"/>
</svg>
