<svg width="75" height="75" viewBox="0 0 75 75" fill="none" xmlns="http://www.w3.org/2000/svg">
<circle opacity="0.235096" cx="37.5" cy="37.5" r="37.5" fill="#E1BEE7"/>
<circle cx="37.5" cy="38" r="7" fill="#E1BEE7"/>
<path fill-rule="evenodd" clip-rule="evenodd" d="M31.2547 30.6761C33.0679 28.8629 35.4786 27.8537 38.0428 27.8537C40.6071 27.8537 43.0178 28.8683 44.831 30.6815C45.9814 31.8319 46.8034 33.2144 47.2509 34.7573H54.4571V25.0715C54.4571 22.7993 52.7008 21.043 50.4286 21.043H25.7428C23.4706 21.043 21.5428 22.7993 21.5428 25.0715V34.7573H28.8347C29.2823 33.2144 30.1042 31.8266 31.2547 30.6761ZM51.7143 28.1744C51.7143 28.7803 51.2231 29.2715 50.6171 29.2715H47.3257C46.7198 29.2715 46.2286 28.7804 46.2286 28.1744V24.883C46.2286 24.2771 46.7197 23.7858 47.3257 23.7858H50.6171C51.223 23.7858 51.7143 24.277 51.7143 24.883V28.1744Z" fill="white"/>
<path fill-rule="evenodd" clip-rule="evenodd" d="M44.831 44.2525C43.0178 46.0657 40.6071 47.0535 38.0428 47.0535C35.4786 47.0535 33.0679 46.0711 31.2547 44.2579C29.4448 42.448 28.4468 39.9857 28.443 37.5H21.5428V49.7571C21.5428 52.0294 23.4706 53.9571 25.7428 53.9571H50.4286C52.7008 53.9571 54.4571 52.0294 54.4571 49.7571V37.5H47.6427C47.639 39.9857 46.6409 42.4426 44.831 44.2525Z" fill="white"/>
</svg>
