<svg width="58" height="58" viewBox="0 0 58 58" fill="none" xmlns="http://www.w3.org/2000/svg">
<path fill-rule="evenodd" clip-rule="evenodd" d="M40.5997 17.5757L23.1493 35.1879L16.5495 28.5746L14.0606 31.0686L21.8909 38.9149C22.2405 39.2652 22.7159 39.5454 23.1353 39.5454C23.5548 39.5454 24.0162 39.2652 24.3658 38.9289L43.0606 20.0978L40.5997 17.5757Z" fill="white"/>
<path fill-rule="evenodd" clip-rule="evenodd" d="M29 0C12.9803 0 0 12.9803 0 29C0 45.0197 12.9803 58 29 58C45.0197 58 58 45.0197 58 29C58 12.9803 45.0197 0 29 0ZM29 55.588C14.3466 55.588 2.41202 43.6673 2.41202 29C2.41202 14.3466 14.3327 2.41202 29 2.41202C43.6534 2.41202 55.588 14.3327 55.588 29C55.588 43.6534 43.6534 55.588 29 55.588Z" fill="white"/>
</svg>
